<svg width="17" height="16" viewBox="0 0 17 16" fill="none" xmlns="http://www.w3.org/2000/svg">
<g id="trending-down">
<path id="Vector" fill-rule="evenodd" clip-rule="evenodd" d="M10.2667 10.4C10.0545 10.4 9.851 10.4843 9.70097 10.6343C9.55094 10.7843 9.46666 10.9878 9.46666 11.2C9.46666 11.4122 9.55094 11.6157 9.70097 11.7657C9.851 11.9157 10.0545 12 10.2667 12H14.2667C14.4788 12 14.6823 11.9157 14.8323 11.7657C14.9824 11.6157 15.0667 11.4122 15.0667 11.2V7.2C15.0667 6.98782 14.9824 6.78434 14.8323 6.63431C14.6823 6.48428 14.4788 6.4 14.2667 6.4C14.0545 6.4 13.851 6.48428 13.701 6.63431C13.5509 6.78434 13.4667 6.98782 13.4667 7.2V9.2688L10.0323 5.8344C9.88224 5.68442 9.67879 5.60017 9.46666 5.60017C9.25453 5.60017 9.05108 5.68442 8.90106 5.8344L7.06666 7.6688L3.63226 4.2344C3.48138 4.08867 3.27929 4.00803 3.06954 4.00986C2.85978 4.01168 2.65913 4.09581 2.5108 4.24414C2.36248 4.39247 2.27834 4.59312 2.27652 4.80288C2.2747 5.01263 2.35533 5.21471 2.50106 5.3656L6.50106 9.3656C6.65108 9.51557 6.85453 9.59983 7.06666 9.59983C7.27879 9.59983 7.48224 9.51557 7.63226 9.3656L9.46666 7.5312L12.3355 10.4H10.2667Z" fill="#E11C48"/>
</g>
</svg>
